<svg xmlns="http://www.w3.org/2000/svg" viewBox="0 0 24 24">
  <path fill="#000" d="M12 3.2a8.8 8.8 0 0 0-2.78 17.15c.44.08.6-.19.6-.43v-1.48c-2.45.53-2.97-1.04-2.97-1.04-.4-1.02-.98-1.29-.98-1.29-.8-.54.06-.53.06-.53.89.06 1.35.91 1.35.91.78 1.35 2.06.96 2.56.73.08-.58.31-.97.55-1.19-1.95-.22-4-.98-4-4.37 0-.97.34-1.77.91-2.39-.09-.22-.39-1.12.09-2.33 0 0 .74-.24 2.42.91A8.3 8.3 0 0 1 12 7.86c.74 0 1.49.1 2.19.3 1.68-1.15 2.42-.9 2.42-.9.48 1.2.18 2.1.09 2.32.57.63.91 1.43.91 2.39 0 3.4-2.05 4.14-4.01 4.36.32.27.6.79.6 1.6v2.37c0 .24.16.52.61.43A8.8 8.8 0 0 0 12 3.2Z"/>
</svg>
